PathFileType	4	(X/Y/Z)	C:/Users/opensim2020/Desktop/walking_exp_matlab/subject01_walking09_straight_01.trc																																																																																																																															
DataRate	CameraRate	NumFrames	NumMarkers	Units	OrigDataRate	OrigDataStartFrame	OrigNumFrames																																																																																																																											
100	100	6	43	mm	100	1075	485																																																																																																																											
Frame#	Time	LFHD			RFHD			LBHD			RBHD			C7			T10			CLAV			STRN			RBAK			LSHO			LUPA			LELB			LFRM			LWRA			LWRB			LFIN			RSHO			RUPA			RELB			RFRM			RWRA			RWRB			RFIN			LASI			RASI			LPSI			RPSI			LTHI			LKNE			LTIB			LANK			LHEE			LTOE			RTHI			RKNE			RTIB			RANK			RHEE			RTOE			*39			*40			*41			*42		
		X1	Y1	Z1	X2	Y2	Z2	X3	Y3	Z3	X4	Y4	Z4	X5	Y5	Z5	X6	Y6	Z6	X7	Y7	Z7	X8	Y8	Z8	X9	Y9	Z9	X10	Y10	Z10	X11	Y11	Z11	X12	Y12	Z12	X13	Y13	Z13	X14	Y14	Z14	X15	Y15	Z15	X16	Y16	Z16	X17	Y17	Z17	X18	Y18	Z18	X19	Y19	Z19	X20	Y20	Z20	X21	Y21	Z21	X22	Y22	Z22	X23	Y23	Z23	X24	Y24	Z24	X25	Y25	Z25	X26	Y26	Z26	X27	Y27	Z27	X28	Y28	Z28	X29	Y29	Z29	X30	Y30	Z30	X31	Y31	Z31	X32	Y32	Z32	X33	Y33	Z33	X34	Y34	Z34	X35	Y35	Z35	X36	Y36	Z36	X37	Y37	Z37	X38	Y38	Z38	X39	Y39	Z39	X40	Y40	Z40	X41	Y41	Z41	X42	Y42	Z42	X43	Y43	Z43
																																																																																																																																		
304	3.03	294.33719	1679.36377	-1041.53223	307.14172	1686.32288	-927.98242	188.35376	1614.07239	-1034.70398	199.03506	1619.47607	-914.0708	175.39513	1433.48096	-992.61652	148.07349	1138.19165	-984.38495	320.56229	1367.45825	-990.6828	366.84628	1213.46863	-998.02362	125.82413	1236.11145	-915.43488	260.20041	1397.52869	-1151.64539	240.77696	1212.97498	-1235.26892	241.22369	1058.97278	-1234.74219	307.57538	964.05103	-1257.15417	418.66312	880.72046	-1245.97302	365.58185	856.37439	-1258.29114	429.12408	803.50446	-1274.06982	256.13727	1393.41687	-839.21948	203.58231	1189.9823	-739.59143	208.82875	1064.93396	-741.13409	239.27585	947.84845	-715.30798	319.45367	832.54156	-741.78662	278.03854	832.48383	-700.89026	316.42926	755.93799	-704.69611	320.57285	928.76288	-1097.02942	330.14008	937.55469	-880.23694	136.28629	942.15637	-1036.35706	144.35776	949.79016	-891.13214	299.91705	594.67865	-1159.2749	285.65015	461.73834	-1154.71948	139.10803	349.37027	-1164.23303	-19.3597	198.69125	-1123.19153	-64.36355	210.25813	-1066.25171	32.8938	57.02445	-1135.89209	311.54681	606.22247	-826.1217	342.03839	450.6265	-857.80432	298.7359	279.08395	-852.66614	278.71716	75.75642	-901.37927	228.05717	36.80265	-950.39691	418.76141	38.87607	-903.82068	288.79099	1717.74963	-950.61523	1973.16626	1023.3916	-3101.88843	2012.48291	1022.11426	-3140.64502	NaN	NaN	NaN
305	3.04	299.94104	1679.42346	-1039.87439	312.58353	1686.42908	-926.53986	194.28648	1613.64453	-1032.92078	204.81169	1619.12012	-912.46606	181.49124	1433.73804	-991.02802	153.49631	1138.57349	-982.51172	326.53537	1367.39539	-989.21704	372.44797	1213.24304	-996.56885	131.2227	1236.54126	-913.64575	266.08893	1397.56653	-1150.12415	245.8201	1212.9386	-1233.39917	245.38536	1058.98499	-1232.37415	310.10266	963.03046	-1254.93958	419.94495	877.99139	-1244.14941	366.37262	854.44794	-1256.21387	428.9606	800.59601	-1272.36206	262.55606	1393.51184	-837.67285	210.28716	1190.16626	-737.75177	215.67319	1065.07178	-739.01056	246.67175	948.03259	-713.36768	327.09378	833.18622	-740.30676	286.58173	832.93268	-699.08624	324.84238	756.5769	-702.78021	325.7337	928.9989	-1095.46716	335.10062	937.38263	-878.52405	141.4725	942.138	-1034.81238	149.26794	949.79504	-889.69165	309.76752	595.78156	-1158.5022	297.80234	462.89984	-1153.9137	151.15053	351.75165	-1162.78821	-8.48976	203.19087	-1120.13306	-52.84822	214.45027	-1062.53772	41.1758	60.77216	-1135.35645	315.64078	605.76495	-825.1684	345.17892	450.34753	-856.65302	300.48746	278.64453	-852.33606	278.8952	75.60543	-901.4176	228.08104	36.98991	-950.40424	418.85083	38.77023	-903.84058	294.18405	1717.72571	-948.81635	1973.07324	1024.0061	-3102.12354	2012.5365	1022.02704	-3140.54346	NaN	NaN	NaN
306	3.05	305.54422	1679.52991	-1038.38501	318.09943	1686.47168	-925.01398	200.17543	1613.28699	-1031.38623	210.71893	1618.71997	-910.90979	187.5605	1433.98132	-989.36902	158.90491	1138.88647	-980.8476	332.47162	1367.28882	-987.76813	378.02386	1212.99817	-995.15918	137.05237	1236.95984	-911.79871	271.98346	1397.6355	-1148.62561	250.82039	1212.88635	-1231.60461	249.54842	1059.05652	-1230.22595	312.66156	962.14325	-1252.84302	421.04547	875.21277	-1242.31641	367.03928	852.70844	-1254.35754	428.70041	797.70966	-1270.58691	268.88336	1393.55103	-836.18414	216.71773	1190.17615	-735.95532	222.42331	1065.16736	-737.02228	254.11632	948.33911	-711.39117	335.23523	833.96509	-738.53046	294.66742	833.47906	-697.16516	333.3927	757.36267	-700.88965	330.85922	929.21924	-1093.93457	340.06638	937.25647	-876.76794	146.5641	942.17303	-1033.48474	154.13377	949.7525	-888.20355	319.38284	596.92157	-1157.74207	309.76624	464.14642	-1152.79932	163.3317	353.59619	-1161.01904	2.57675	206.88522	-1116.95728	-41.28099	217.11072	-1058.5625	51.69234	64.86338	-1135.3468	319.71036	605.33069	-824.21173	348.22137	449.65964	-856.02209	302.29068	278.42868	-851.92059	279.12646	75.67578	-901.47064	228.14557	36.94695	-950.43701	418.91537	38.75502	-903.91486	299.67502	1717.86462	-947.28741	1973.0542	1023.95172	-3102.04663	2012.51819	1022.11096	-3140.74097	NaN	NaN	NaN
307	3.06	311.20621	1679.61707	-1036.81506	323.77161	1686.61145	-923.42407	205.99887	1612.98779	-1029.89429	216.62242	1618.40527	-909.29669	193.55038	1434.2605	-987.8504	164.24948	1139.25708	-979.17371	338.3746	1367.19263	-986.40149	383.49854	1212.75208	-993.78625	142.81842	1237.40881	-910.09369	277.77521	1397.65369	-1147.21082	255.7739	1212.82336	-1229.8468	253.78117	1059.11426	-1228.00293	315.23624	961.26801	-1250.84778	422.08005	872.43921	-1240.50146	367.72397	850.83197	-1252.41577	428.3381	794.81934	-1268.78772	275.20291	1393.6167	-834.77734	223.73688	1190.48828	-734.24646	229.28375	1065.30432	-735.04279	261.5553	948.55621	-709.53339	343.30255	834.62299	-736.77637	302.67404	833.8764	-695.45709	341.85263	758.10577	-699.05463	335.84082	929.64886	-1092.09912	344.91965	937.14343	-874.99786	151.59453	942.25922	-1032.1637	159.04504	949.63159	-887.0451	328.8154	598.15607	-1156.99805	321.7179	465.50549	-1151.44946	175.33279	355.13028	-1159.17834	13.80096	209.67938	-1113.8512	-29.47115	218.74854	-1054.43774	63.79943	68.82954	-1135.46448	323.42105	604.90179	-823.35443	350.75415	448.8692	-855.71429	303.70947	278.09027	-851.57056	279.33514	75.62526	-901.51904	228.21283	37.18349	-950.47614	418.95938	38.65488	-903.98718	305.00308	1717.89539	-945.68677	1973.146	1023.40155	-3101.89282	2012.43469	1021.9079	-3140.65942	NaN	NaN	NaN
308	3.07	316.80539	1679.71643	-1035.31519	329.41434	1686.70862	-921.97461	211.85342	1612.75549	-1028.50012	222.40317	1618.15332	-907.86206	199.56989	1434.54919	-986.34491	169.56709	1139.62488	-977.6601	344.22852	1367.12891	-985.13007	388.98117	1212.52026	-992.45831	148.50504	1237.89209	-908.43127	283.53131	1397.64392	-1145.79395	260.71942	1212.78857	-1228.25305	257.95096	1059.11865	-1226.16895	317.79742	960.42865	-1248.97168	423.08481	869.71344	-1238.70227	368.31046	849.02991	-1250.651	427.922	792.04736	-1267.09473	281.3511	1393.56335	-833.47284	230.465	1190.6272	-732.57098	236.04181	1065.38757	-733.16602	269.00262	948.83533	-707.72131	351.24146	835.1709	-734.98663	310.69162	834.41046	-693.72449	350.26007	758.83368	-697.28705	340.89539	929.86743	-1090.75269	349.7901	937.04773	-873.32233	156.63498	942.3739	-1031.00122	163.82829	949.45569	-885.82111	338.155	599.38141	-1156.14575	333.42847	466.82974	-1150.20227	187.20599	356.41531	-1157.11035	25.81615	211.66245	-1110.85974	-17.14927	219.18185	-1050.68469	77.49834	72.23684	-1135.40466	326.93796	604.46649	-822.61163	353.36548	448.4924	-854.68195	305.05112	277.78149	-851.30432	279.47668	75.57326	-901.55682	228.21384	37.26171	-950.50757	419.01401	38.58826	-904.02197	310.65753	1717.6814	-944.29999	1972.92615	1023.91724	-3102.05273	2012.52722	1022.10272	-3140.61938	NaN	NaN	NaN
309	3.08	322.49734	1679.78931	-1033.78687	335.07306	1686.8186	-920.52521	217.6711	1612.55798	-1026.98059	228.26186	1617.9646	-906.50171	205.50493	1434.88684	-984.91064	174.83342	1139.98792	-976.21582	350.00989	1367.06226	-983.8869	394.37564	1212.32788	-991.16071	154.12596	1238.35181	-906.89209	289.20993	1397.6853	-1144.49475	265.63956	1212.73499	-1226.65112	262.14423	1059.25037	-1224.28333	320.33569	959.66718	-1247.25964	424.01178	867.05939	-1236.94788	368.86554	847.36188	-1248.93628	427.53552	789.32489	-1265.24817	287.61871	1393.6366	-832.1626	237.12454	1190.74646	-730.96765	242.90245	1065.51135	-731.41669	276.38126	949.06055	-705.95203	359.22406	835.88135	-733.36389	318.69382	834.86292	-692.05975	358.77884	759.62653	-695.54321	345.98154	930.23523	-1089.21265	354.55731	937.02008	-871.65436	161.67603	942.52991	-1029.84241	168.55061	949.32605	-884.67126	347.36194	600.71991	-1155.21729	345.08719	468.18951	-1148.72461	198.89735	357.60104	-1154.93689	38.46796	212.82556	-1108.15771	-4.49383	218.78967	-1047.3407	92.34872	75.21583	-1135.13513	330.38312	604.14642	-821.80237	355.67239	448.04355	-854.0849	306.20148	277.60129	-850.80084	279.65735	75.57794	-901.56409	228.19783	37.36729	-950.47809	419.07205	38.53577	-904.09326	316.19763	1717.55774	-942.39948	1973.11987	1023.81409	-3102.05981	2012.64124	1022.11682	-3140.52808	NaN	NaN	NaN
